<svg xmlns="http://www.w3.org/2000/svg" width="1200" height="420" viewBox="0 0 1200 420" role="img" aria-label="Merge PDFs illustration">
  <defs>
    <pattern id="dots" width="16" height="16" patternUnits="userSpaceOnUse">
      <circle cx="2" cy="2" r="1.3" fill="#18140d" opacity="0.09"/>
    </pattern>
    <linearGradient id="paper" x1="0" y1="0" x2="1" y2="1">
      <stop offset="0" stop-color="#fdfaf0"/><stop offset="1" stop-color="#f3eddd"/>
    </linearGradient>
    <marker id="tip" viewBox="0 0 10 10" refX="8" refY="5" markerWidth="6" markerHeight="6" orient="auto">
      <path d="M0,0 L10,5 L0,10 z" fill="#18140d"/>
    </marker>
  </defs>
  <rect width="1200" height="420" fill="url(#paper)"/>
  <rect width="1200" height="420" fill="url(#dots)"/>
  <rect x="16" y="16" width="1168" height="388" fill="#18140d"/>
  <rect x="20" y="20" width="1160" height="380" fill="#fdfaf0" stroke="#18140d" stroke-width="2"/>
  <line x1="44" y1="70" x2="1156" y2="70" stroke="#d93a11" stroke-width="3"/>
  <text x="44" y="56" font-family="Georgia, 'Times New Roman', serif" font-weight="700" font-size="18" fill="#18140d">Merge PDFs</text>
  <text x="1156" y="58" text-anchor="end" font-family="'Courier New', monospace" font-size="13" fill="#746b56" letter-spacing="1">TOOL № 01 · VOL XXVI</text>
  
  <g transform="translate(120,110)">
    <rect x="5" y="5" width="150" height="190" fill="#18140d"/>
    <rect width="150" height="190" fill="#fdfaf0" stroke="#18140d" stroke-width="2"/>
    <path d="M134 0 L150 16 L134 16 Z" fill="#f3eddd" stroke="#18140d" stroke-width="1.5"/>
    <rect x="14" y="16" width="51.00000000000001" height="6" fill="#d93a11"/>
    <rect x="14" y="36" width="122" height="4" fill="#403a2c" opacity="0.5"/><rect x="14" y="50" width="122" height="4" fill="#403a2c" opacity="0.5"/><rect x="14" y="64" width="73.2" height="4" fill="#403a2c" opacity="0.5"/><rect x="14" y="78" width="122" height="4" fill="#403a2c" opacity="0.5"/>
  </g>
  <g transform="translate(120,70)">
    <rect x="5" y="5" width="150" height="190" fill="#18140d"/>
    <rect width="150" height="190" fill="#fdfaf0" stroke="#18140d" stroke-width="2"/>
    <path d="M134 0 L150 16 L134 16 Z" fill="#f3eddd" stroke="#18140d" stroke-width="1.5"/>
    <rect x="14" y="16" width="51.00000000000001" height="6" fill="#1b3aa3"/>
    <rect x="14" y="36" width="122" height="4" fill="#403a2c" opacity="0.5"/><rect x="14" y="50" width="122" height="4" fill="#403a2c" opacity="0.5"/><rect x="14" y="64" width="73.2" height="4" fill="#403a2c" opacity="0.5"/><rect x="14" y="78" width="122" height="4" fill="#403a2c" opacity="0.5"/>
  </g>
    
  <line x1="300" y1="175" x2="430" y2="175" stroke="#18140d" stroke-width="3" marker-end="url(#tip)"/>
    
  <g transform="translate(450,70)">
    <rect x="5" y="5" width="210" height="250" fill="#18140d"/>
    <rect width="210" height="250" fill="#fdfaf0" stroke="#18140d" stroke-width="2"/>
    <path d="M194 0 L210 16 L194 16 Z" fill="#f3eddd" stroke="#18140d" stroke-width="1.5"/>
    <rect x="14" y="16" width="71.4" height="6" fill="#18140d"/>
    <rect x="14" y="36" width="182" height="4" fill="#403a2c" opacity="0.5"/><rect x="14" y="50" width="182" height="4" fill="#403a2c" opacity="0.5"/><rect x="14" y="64" width="109.2" height="4" fill="#403a2c" opacity="0.5"/><rect x="14" y="78" width="182" height="4" fill="#403a2c" opacity="0.5"/><rect x="14" y="92" width="182" height="4" fill="#403a2c" opacity="0.5"/><rect x="14" y="106" width="109.2" height="4" fill="#403a2c" opacity="0.5"/><rect x="14" y="120" width="182" height="4" fill="#403a2c" opacity="0.5"/>
  </g>
    <text x="640" y="210" font-family="Georgia, 'Times New Roman', serif" font-size="70" font-weight="700" fill="#d93a11">1</text>
  <g transform="translate(44,352)" fill="#18140d">
    <rect x="0" width="4" height="26" opacity="0.85"/><rect x="9" width="2" height="26" opacity="0.85"/><rect x="18" width="2" height="26" opacity="0.85"/><rect x="27" width="4" height="26" opacity="0.85"/><rect x="36" width="2" height="26" opacity="0.85"/><rect x="45" width="2" height="26" opacity="0.85"/><rect x="54" width="4" height="26" opacity="0.85"/><rect x="63" width="2" height="26" opacity="0.85"/><rect x="72" width="2" height="26" opacity="0.85"/><rect x="81" width="4" height="26" opacity="0.85"/><rect x="90" width="2" height="26" opacity="0.85"/><rect x="99" width="2" height="26" opacity="0.85"/><rect x="108" width="4" height="26" opacity="0.85"/><rect x="117" width="2" height="26" opacity="0.85"/><rect x="126" width="2" height="26" opacity="0.85"/><rect x="135" width="4" height="26" opacity="0.85"/>
  </g>
  <text x="1156" y="372" text-anchor="end" font-family="Georgia, 'Times New Roman', serif" font-style="italic" font-size="15" fill="#403a2c">Bind the stack into one</text>
</svg>
