<svg xmlns="http://www.w3.org/2000/svg" width="1200" height="420" viewBox="0 0 1200 420" role="img" aria-label="PDF to Images illustration">
  <defs>
    <pattern id="dots" width="16" height="16" patternUnits="userSpaceOnUse">
      <circle cx="2" cy="2" r="1.3" fill="#18140d" opacity="0.09"/>
    </pattern>
    <linearGradient id="paper" x1="0" y1="0" x2="1" y2="1">
      <stop offset="0" stop-color="#fdfaf0"/><stop offset="1" stop-color="#f3eddd"/>
    </linearGradient>
    <marker id="tip" viewBox="0 0 10 10" refX="8" refY="5" markerWidth="6" markerHeight="6" orient="auto">
      <path d="M0,0 L10,5 L0,10 z" fill="#18140d"/>
    </marker>
  </defs>
  <rect width="1200" height="420" fill="url(#paper)"/>
  <rect width="1200" height="420" fill="url(#dots)"/>
  <rect x="16" y="16" width="1168" height="388" fill="#18140d"/>
  <rect x="20" y="20" width="1160" height="380" fill="#fdfaf0" stroke="#18140d" stroke-width="2"/>
  <line x1="44" y1="70" x2="1156" y2="70" stroke="#d93a11" stroke-width="3"/>
  <text x="44" y="56" font-family="Georgia, 'Times New Roman', serif" font-weight="700" font-size="18" fill="#18140d">PDF to Images</text>
  <text x="1156" y="58" text-anchor="end" font-family="'Courier New', monospace" font-size="13" fill="#746b56" letter-spacing="1">TOOL № 09 · VOL XXVI</text>
  
  <g transform="translate(120,90)">
    <rect x="5" y="5" width="170" height="220" fill="#18140d"/>
    <rect width="170" height="220" fill="#fdfaf0" stroke="#18140d" stroke-width="2"/>
    <path d="M154 0 L170 16 L154 16 Z" fill="#f3eddd" stroke="#18140d" stroke-width="1.5"/>
    <rect x="14" y="16" width="57.800000000000004" height="6" fill="#18140d"/>
    <rect x="14" y="36" width="142" height="4" fill="#403a2c" opacity="0.5"/><rect x="14" y="50" width="142" height="4" fill="#403a2c" opacity="0.5"/><rect x="14" y="64" width="85.2" height="4" fill="#403a2c" opacity="0.5"/><rect x="14" y="78" width="142" height="4" fill="#403a2c" opacity="0.5"/><rect x="14" y="92" width="142" height="4" fill="#403a2c" opacity="0.5"/>
  </g>
    
  <line x1="330" y1="200" x2="440" y2="200" stroke="#d93a11" stroke-width="3" marker-end="url(#tip)"/>
    
  <g transform="translate(470,110)">
    <rect x="4" y="4" width="120" height="88" fill="#18140d"/>
    <rect width="120" height="88" fill="#fdfaf0" stroke="#18140d" stroke-width="2"/>
    <circle cx="33.6" cy="29.92" r="11.440000000000001" fill="#d93a11"/>
    <path d="M0 82 L48 44 L74.4 63.36 L96 45.760000000000005 L120 82 Z" fill="#d93a11" opacity="0.55"/>
    <rect x="0" y="82" width="120" height="6" fill="#d93a11"/>
  </g>
  <g transform="translate(608,110)">
    <rect x="4" y="4" width="120" height="88" fill="#18140d"/>
    <rect width="120" height="88" fill="#fdfaf0" stroke="#18140d" stroke-width="2"/>
    <circle cx="33.6" cy="29.92" r="11.440000000000001" fill="#1b3aa3"/>
    <path d="M0 82 L48 44 L74.4 63.36 L96 45.760000000000005 L120 82 Z" fill="#1b3aa3" opacity="0.55"/>
    <rect x="0" y="82" width="120" height="6" fill="#1b3aa3"/>
  </g>
  <g transform="translate(470,216)">
    <rect x="4" y="4" width="120" height="88" fill="#18140d"/>
    <rect width="120" height="88" fill="#fdfaf0" stroke="#18140d" stroke-width="2"/>
    <circle cx="33.6" cy="29.92" r="11.440000000000001" fill="#5c6b2a"/>
    <path d="M0 82 L48 44 L74.4 63.36 L96 45.760000000000005 L120 82 Z" fill="#5c6b2a" opacity="0.55"/>
    <rect x="0" y="82" width="120" height="6" fill="#5c6b2a"/>
  </g>
  <g transform="translate(608,216)">
    <rect x="4" y="4" width="120" height="88" fill="#18140d"/>
    <rect width="120" height="88" fill="#fdfaf0" stroke="#18140d" stroke-width="2"/>
    <circle cx="33.6" cy="29.92" r="11.440000000000001" fill="#d93a11"/>
    <path d="M0 82 L48 44 L74.4 63.36 L96 45.760000000000005 L120 82 Z" fill="#d93a11" opacity="0.55"/>
    <rect x="0" y="82" width="120" height="6" fill="#d93a11"/>
  </g>
  <g transform="translate(44,352)" fill="#18140d">
    <rect x="0" width="4" height="26" opacity="0.85"/><rect x="9" width="2" height="26" opacity="0.85"/><rect x="18" width="2" height="26" opacity="0.85"/><rect x="27" width="4" height="26" opacity="0.85"/><rect x="36" width="2" height="26" opacity="0.85"/><rect x="45" width="2" height="26" opacity="0.85"/><rect x="54" width="4" height="26" opacity="0.85"/><rect x="63" width="2" height="26" opacity="0.85"/><rect x="72" width="2" height="26" opacity="0.85"/><rect x="81" width="4" height="26" opacity="0.85"/><rect x="90" width="2" height="26" opacity="0.85"/><rect x="99" width="2" height="26" opacity="0.85"/><rect x="108" width="4" height="26" opacity="0.85"/><rect x="117" width="2" height="26" opacity="0.85"/><rect x="126" width="2" height="26" opacity="0.85"/><rect x="135" width="4" height="26" opacity="0.85"/>
  </g>
  <text x="1156" y="372" text-anchor="end" font-family="Georgia, 'Times New Roman', serif" font-style="italic" font-size="15" fill="#403a2c">Pages become pictures</text>
</svg>
